<svg width="520" height="520" viewBox="0 0 520 520" fill="none" xmlns="http://www.w3.org/2000/svg">
  <rect width="520" height="520" rx="90" fill="#090909"/>
  <circle cx="260" cy="260" r="205" fill="#151515" stroke="#F5F5F5" stroke-width="8"/>
  <path d="M126 274C167 169 240 97 369 82C318 133 336 188 386 215C324 223 291 253 274 310C243 278 196 265 126 274Z" fill="#F5F5F5"/>
  <path d="M143 326C206 299 277 312 333 379C248 367 190 389 143 438C154 400 153 363 143 326Z" fill="#BDBDBD"/>
  <path d="M344 132L378 154L338 163L344 132Z" fill="#090909"/>
  <path d="M95 96L69 172L148 146L95 96Z" fill="#F5F5F5"/>
  <path d="M430 400L456 324L377 350L430 400Z" fill="#F5F5F5"/>
  <text x="260" y="278" text-anchor="middle" font-family="Arial Black, Arial, sans-serif" font-size="54" fill="#090909" letter-spacing="-3">SN</text>
  <text x="260" y="472" text-anchor="middle" font-family="Arial Black, Arial, sans-serif" font-size="42" fill="#F5F5F5" letter-spacing="-2">SINZNATION</text>
</svg>